<mxfile host="app.diagrams.net" modified="2024-02-22T20:54:41.055Z" agent="Mozilla/5.0 (Macintosh; Intel Mac OS X 10_15_7) AppleWebKit/537.36 (KHTML, like Gecko) Chrome/121.0.0.0 Safari/537.36 Edg/121.0.0.0" version="23.1.5" etag="jBxmuM9SSXKxWOUD0J3O" type="github">
  <diagram name="Page-1" id="R566pbKNirqpnkwZ7LxO">
    <mxGraphModel>
      <root>
        <mxCell id="0" />
        <mxCell id="1" parent="0" />
      </root>
    </mxGraphModel>
  </diagram>
</mxfile>
